<svg width="162" height="122" viewBox="0 0 162 122" fill="none" xmlns="http://www.w3.org/2000/svg">
<path d="M81 0L91.0936 27.4937L116.145 5.99667L109.281 34.0416L144.328 22.799L121.868 45.8404L159.969 47.079L126.36 60.5534L159.969 74.0278L121.868 75.2664L144.328 98.3078L109.281 87.0652L116.145 115.11L91.0936 93.6131L81 121.107L70.9064 93.6131L45.8554 115.11L52.7185 87.0652L17.6716 98.3078L40.1321 75.2664L2.03084 74.0278L35.64 60.5534L2.03084 47.079L40.1321 45.8404L17.6716 22.799L52.7185 34.0416L45.8554 5.99667L70.9064 27.4937L81 0Z" fill="#F3B541"/>
<path d="M66.3297 54.4668H73.068V56H64.4449V41.7812H66.3297V54.4668ZM74.4449 50.6191C74.4449 49.584 74.6468 48.653 75.0504 47.8262C75.4606 46.9993 76.027 46.3613 76.7496 45.9121C77.4788 45.4629 78.3089 45.2383 79.2399 45.2383C80.6787 45.2383 81.8408 45.7363 82.7262 46.7324C83.6181 47.7285 84.0641 49.0534 84.0641 50.707V50.834C84.0641 51.8626 83.8655 52.7871 83.4684 53.6074C83.0777 54.4212 82.5146 55.056 81.7789 55.5117C81.0498 55.9674 80.2099 56.1953 79.2594 56.1953C77.8271 56.1953 76.665 55.6973 75.7731 54.7012C74.8876 53.7051 74.4449 52.3867 74.4449 50.7461V50.6191ZM76.2613 50.834C76.2613 52.0059 76.5315 52.9466 77.0719 53.6562C77.6188 54.3659 78.3479 54.7207 79.2594 54.7207C80.1774 54.7207 80.9065 54.3626 81.4469 53.6465C81.9873 52.9238 82.2574 51.9147 82.2574 50.6191C82.2574 49.4603 81.9807 48.5228 81.4274 47.8066C80.8805 47.084 80.1513 46.7227 79.2399 46.7227C78.3479 46.7227 77.6285 47.0775 77.0817 47.7871C76.5348 48.4967 76.2613 49.5124 76.2613 50.834ZM95.6852 53.5098L97.7164 45.4336H99.5231L96.4469 56H94.982L92.4137 47.9922L89.9137 56H88.4488L85.3824 45.4336H87.1793L89.2594 53.3438L91.7203 45.4336H93.1754L95.6852 53.5098ZM59.5817 73.4336V79H57.7067V64.7812H62.9508C64.5068 64.7812 65.7242 65.1784 66.6031 65.9727C67.4886 66.7669 67.9313 67.8184 67.9313 69.127C67.9313 70.5072 67.4983 71.5716 66.6324 72.3203C65.7731 73.0625 64.5393 73.4336 62.9313 73.4336H59.5817ZM59.5817 71.9004H62.9508C63.9534 71.9004 64.7216 71.666 65.2555 71.1973C65.7893 70.722 66.0563 70.0384 66.0563 69.1465C66.0563 68.3001 65.7893 67.623 65.2555 67.1152C64.7216 66.6074 63.9892 66.3438 63.0582 66.3242H59.5817V71.9004ZM75.1481 70.0547C74.8746 70.0091 74.5784 69.9863 74.2594 69.9863C73.0745 69.9863 72.2705 70.4909 71.8473 71.5V79H70.0406V68.4336H71.7985L71.8277 69.6543C72.4202 68.7103 73.26 68.2383 74.3473 68.2383C74.6988 68.2383 74.9658 68.2839 75.1481 68.375V70.0547ZM78.7809 79H76.9742V68.4336H78.7809V79ZM76.8277 65.6309C76.8277 65.3379 76.9156 65.0905 77.0914 64.8887C77.2737 64.6868 77.5406 64.5859 77.8922 64.5859C78.2438 64.5859 78.5107 64.6868 78.693 64.8887C78.8753 65.0905 78.9664 65.3379 78.9664 65.6309C78.9664 65.9238 78.8753 66.168 78.693 66.3633C78.5107 66.5586 78.2438 66.6562 77.8922 66.6562C77.5406 66.6562 77.2737 66.5586 77.0914 66.3633C76.9156 66.168 76.8277 65.9238 76.8277 65.6309ZM85.9195 77.7207C86.5641 77.7207 87.1272 77.5254 87.609 77.1348C88.0908 76.7441 88.3577 76.2559 88.4098 75.6699H90.1188C90.0862 76.2754 89.8779 76.8516 89.4938 77.3984C89.1096 77.9453 88.5953 78.3815 87.9508 78.707C87.3128 79.0326 86.6357 79.1953 85.9195 79.1953C84.4807 79.1953 83.3349 78.7168 82.482 77.7598C81.6357 76.7962 81.2125 75.4811 81.2125 73.8145V73.5117C81.2125 72.4831 81.4013 71.5684 81.7789 70.7676C82.1565 69.9668 82.6969 69.3451 83.4 68.9023C84.1096 68.4596 84.9462 68.2383 85.9098 68.2383C87.0947 68.2383 88.0777 68.5931 88.859 69.3027C89.6468 70.0124 90.0667 70.9336 90.1188 72.0664H88.4098C88.3577 71.3828 88.0973 70.8229 87.6285 70.3867C87.1663 69.944 86.5934 69.7227 85.9098 69.7227C84.9918 69.7227 84.2789 70.0547 83.7711 70.7188C83.2698 71.3763 83.0192 72.3301 83.0192 73.5801V73.9219C83.0192 75.1393 83.2698 76.0768 83.7711 76.7344C84.2724 77.3919 84.9886 77.7207 85.9195 77.7207ZM96.5348 79.1953C95.1025 79.1953 93.9371 78.7266 93.0387 77.7891C92.1402 76.8451 91.691 75.5853 91.691 74.0098V73.6777C91.691 72.6296 91.8896 71.6953 92.2867 70.875C92.6904 70.0482 93.2503 69.4036 93.9664 68.9414C94.6891 68.4727 95.4703 68.2383 96.3102 68.2383C97.6839 68.2383 98.7516 68.6908 99.5133 69.5957C100.275 70.5007 100.656 71.7962 100.656 73.4824V74.2344H93.4977C93.5237 75.276 93.8264 76.1191 94.4059 76.7637C94.9918 77.4017 95.734 77.7207 96.6324 77.7207C97.2705 77.7207 97.8108 77.5905 98.2535 77.3301C98.6962 77.0697 99.0836 76.7246 99.4156 76.2949L100.519 77.1543C99.6337 78.515 98.3056 79.1953 96.5348 79.1953ZM96.3102 69.7227C95.581 69.7227 94.969 69.9896 94.4742 70.5234C93.9794 71.0508 93.6735 71.793 93.5563 72.75H98.8492V72.6133C98.7971 71.6953 98.5498 70.9857 98.107 70.4844C97.6643 69.9766 97.0654 69.7227 96.3102 69.7227ZM108.908 76.1973C108.908 75.709 108.722 75.3314 108.351 75.0645C107.987 74.791 107.345 74.5566 106.427 74.3613C105.516 74.166 104.79 73.9316 104.25 73.6582C103.716 73.3848 103.319 73.0592 103.058 72.6816C102.804 72.304 102.677 71.8548 102.677 71.334C102.677 70.4681 103.042 69.7357 103.771 69.1367C104.507 68.5378 105.444 68.2383 106.584 68.2383C107.782 68.2383 108.752 68.5475 109.494 69.166C110.242 69.7845 110.617 70.5755 110.617 71.5391H108.8C108.8 71.0443 108.589 70.6178 108.166 70.2598C107.749 69.9017 107.222 69.7227 106.584 69.7227C105.926 69.7227 105.412 69.8659 105.041 70.1523C104.67 70.4388 104.484 70.8132 104.484 71.2754C104.484 71.7116 104.657 72.0404 105.002 72.2617C105.347 72.4831 105.968 72.6947 106.867 72.8965C107.772 73.0983 108.504 73.3392 109.064 73.6191C109.624 73.8991 110.037 74.2376 110.304 74.6348C110.578 75.0254 110.714 75.5039 110.714 76.0703C110.714 77.0143 110.337 77.7728 109.582 78.3457C108.826 78.9121 107.847 79.1953 106.642 79.1953C105.796 79.1953 105.047 79.0456 104.396 78.7461C103.745 78.4466 103.234 78.0299 102.863 77.4961C102.498 76.9557 102.316 76.373 102.316 75.748H104.123C104.155 76.3535 104.396 76.8353 104.845 77.1934C105.301 77.5449 105.9 77.7207 106.642 77.7207C107.326 77.7207 107.873 77.584 108.283 77.3105C108.699 77.0306 108.908 76.6595 108.908 76.1973Z" fill="black"/>
</svg>
