<svg width="192" height="38" viewBox="0 0 192 38" fill="none" xmlns="http://www.w3.org/2000/svg">
<g clip-path="url(#clip0_7_3)">
<path d="M22.7386 37.7485C19.6088 38.2595 16.6707 36.1517 16.0958 33.0219L11.6248 6.70656C11.1138 3.57682 13.2216 0.638699 16.3513 0.0638488C19.4811 -0.447129 22.4192 1.66066 22.9941 4.7904L27.4651 31.1058C27.9761 34.2355 25.8683 37.1736 22.7386 37.7485Z" fill="#CC4C6E"/>
<path d="M38.7704 37.7485C35.6407 38.2595 32.7026 36.1517 32.1277 33.0219L27.6567 6.70656C27.0818 3.57682 29.1896 0.638699 32.3193 0.0638488C35.4491 -0.447129 38.3872 1.66066 38.9621 4.7904L43.4331 31.1058C44.008 34.2355 41.9002 37.1736 38.7704 37.7485Z" fill="#CC4C6E"/>
<path d="M3.44967 37.302C0.575417 36.0245 -0.765901 32.6393 0.511545 29.7012L12.0724 3.44967C13.3499 0.575417 16.7351 -0.765901 19.6732 0.511545C22.5475 1.78899 23.8888 5.17422 22.6113 8.11234L10.9866 34.3638C9.70915 37.302 6.32392 38.5794 3.44967 37.302Z" fill="#F3B541"/>
<path d="M19.4172 37.3014C16.5429 36.0239 15.2016 32.6387 16.4791 29.7006L28.04 3.44909C29.3174 0.574837 32.7026 -0.766481 35.6408 0.510965C38.515 1.78841 39.8563 5.17364 38.5789 8.11176L27.018 34.3633C25.6767 37.3014 22.2915 38.5788 19.4172 37.3014Z" fill="#4CB3AA"/>
<path d="M35.3852 37.3014C32.511 36.0239 31.1696 32.6387 32.4471 29.7006L44.0718 3.44909C45.3493 0.574837 48.7345 -0.766481 51.6726 0.510965C54.5469 1.78841 55.8882 5.17364 54.6108 8.11176L42.986 34.3633C41.7086 37.3014 38.3233 38.5788 35.3852 37.3014Z" fill="#842C68"/>
<path d="M64.7665 11.8164C64.7665 11.5609 64.9581 11.4331 65.1497 11.4331H65.4052C65.6607 11.4331 65.7884 11.497 65.8523 11.7525L70.5788 21.9082C70.9621 22.7385 71.4092 23.7605 71.4092 23.7605H71.473C71.473 23.7605 71.9201 22.6747 72.3034 21.9082L77.0299 11.7525C77.0938 11.5609 77.2854 11.4331 77.477 11.4331H77.7325C77.988 11.4331 78.1158 11.5609 78.1158 11.8164L79.3932 27.6567C79.3932 27.9122 79.2655 28.1038 79.01 28.1038H78.8184C78.5629 28.1038 78.4351 27.9761 78.4351 27.7206L77.4132 15.3932C77.3493 14.5629 77.3493 13.1577 77.3493 13.1577H77.2854C77.2854 13.1577 76.8383 14.5629 76.4551 15.3932L72.1756 24.5908C72.1118 24.7824 71.9202 24.9102 71.7285 24.9102H71.3453C71.0898 24.9102 70.9621 24.8463 70.8982 24.5908L66.6188 15.3932C66.2355 14.6267 65.7245 13.1577 65.7245 13.1577H65.6607C65.6607 13.1577 65.6607 14.6267 65.5968 15.3932L64.511 27.7844C64.511 28.0399 64.3194 28.1677 64.1277 28.1677H63.8722C63.6168 28.1677 63.489 28.0399 63.489 27.7206L64.7665 11.8164Z" fill="white"/>
<path d="M87.8244 11.8164C87.8883 11.5609 88.0799 11.497 88.2715 11.497H88.7186C88.9102 11.497 89.1019 11.5609 89.1657 11.8164L95.1058 27.6567C95.1697 27.9122 95.1058 28.1038 94.7865 28.1038H94.531C94.3394 28.1038 94.1478 28.0399 94.0839 27.7844L91.9761 22.3553H84.9501L82.9062 27.7844C82.8424 28.0399 82.6508 28.1038 82.4591 28.1038H82.2036C81.8843 28.1038 81.7565 27.9122 81.8843 27.6567L87.8244 11.8164ZM91.6567 21.3972L89.1018 14.6267C88.8464 13.9242 88.4631 12.6467 88.4631 12.6467H88.3992C88.3992 12.6467 88.016 13.9242 87.7605 14.6267L85.2056 21.3972H91.6567Z" fill="white"/>
<path d="M100.535 20.8862L95.1696 11.9441C94.978 11.6886 95.1057 11.497 95.4251 11.497H95.6806C95.8722 11.497 96.0638 11.5609 96.1277 11.7525L99.8962 18.0759C100.343 18.9062 100.918 19.9281 100.918 19.9281H100.982C100.982 19.9281 101.493 18.8423 102.004 18.0759L105.772 11.7525C105.9 11.5609 106.028 11.497 106.22 11.497H106.475C106.794 11.497 106.922 11.6886 106.731 11.9441L101.365 20.8862V27.7206C101.365 27.9761 101.237 28.1038 100.982 28.1038H100.918C100.663 28.1038 100.535 27.9761 100.535 27.7206V20.8862Z" fill="white"/>
<path d="M109.988 11.8802C109.988 11.6248 110.116 11.497 110.371 11.497H110.627C110.818 11.497 111.01 11.5609 111.138 11.7525L120.463 24.5908C121.038 25.3573 121.804 26.6986 121.804 26.6986H121.868C121.868 26.6986 121.741 25.4212 121.741 24.5908V11.8802C121.741 11.6248 121.868 11.497 122.124 11.497H122.315C122.571 11.497 122.699 11.6248 122.699 11.8802V27.7206C122.699 27.9761 122.571 28.1038 122.315 28.1038H122.06C121.868 28.1038 121.677 28.0399 121.549 27.8483L112.224 15.01C111.649 14.2435 110.882 12.9022 110.882 12.9022H110.818C110.818 12.9022 110.946 14.1796 110.946 15.01V27.6567C110.946 27.9122 110.818 28.0399 110.563 28.0399H110.371C110.116 28.0399 109.988 27.9122 109.988 27.6567V11.8802Z" fill="white"/>
<path d="M134.962 11.1776C139.752 11.1776 143.393 14.8822 143.393 19.6727C143.393 24.5908 139.752 28.4232 134.962 28.4232C130.172 28.4232 126.531 24.5908 126.531 19.6727C126.531 14.8822 130.172 11.1776 134.962 11.1776ZM134.962 27.4651C139.178 27.4651 142.307 24.0798 142.307 19.6727C142.307 15.3932 139.178 12.1357 134.962 12.1357C130.746 12.1357 127.617 15.3932 127.617 19.6727C127.617 24.0798 130.746 27.4651 134.962 27.4651Z" fill="white"/>
<path d="M154.443 11.1776C159.234 11.1776 162.874 14.8822 162.874 19.6727C162.874 24.5908 159.234 28.4232 154.443 28.4232C149.653 28.4232 146.012 24.5908 146.012 19.6727C146.012 14.8822 149.653 11.1776 154.443 11.1776ZM154.443 27.4651C158.659 27.4651 161.788 24.0798 161.788 19.6727C161.788 15.3932 158.659 12.1357 154.443 12.1357C150.228 12.1357 147.098 15.3932 147.098 19.6727C147.098 24.0798 150.228 27.4651 154.443 27.4651Z" fill="white"/>
<path d="M169.517 12.3912H163.705C163.449 12.3912 163.321 12.2635 163.321 12.008V11.8802C163.321 11.6248 163.449 11.497 163.705 11.497H176.351C176.607 11.497 176.734 11.6248 176.734 11.8802V12.008C176.734 12.2635 176.607 12.3912 176.351 12.3912H170.539V27.7206C170.539 27.9761 170.411 28.1038 170.156 28.1038H169.9C169.645 28.1038 169.517 27.9761 169.517 27.7206V12.3912Z" fill="white"/>
<path d="M179.353 11.8802C179.353 11.6248 179.481 11.497 179.737 11.497H179.928C180.184 11.497 180.311 11.6248 180.311 11.8802V19.2894H190.978V11.8802C190.978 11.6248 191.106 11.497 191.361 11.497H191.553C191.808 11.497 191.936 11.6248 191.936 11.8802V27.7206C191.936 27.9761 191.808 28.1038 191.553 28.1038H191.361C191.106 28.1038 190.978 27.9761 190.978 27.7206V20.2475H180.375V27.7206C180.375 27.9761 180.247 28.1038 179.992 28.1038H179.8C179.545 28.1038 179.417 27.9761 179.417 27.7206V11.8802H179.353Z" fill="white"/>
</g>
<defs>
<clipPath id="clip0_7_3">
<rect width="192" height="37.8124" fill="white"/>
</clipPath>
</defs>
</svg>
